#!OML:ASF I:\Actors\actors\Patient Classification 1\Patient 1\Session 1\Subject1.ASF
:FULLY-SPECIFIED
:DEGREES
391
root 0.581285 17.4427 9.31617 6.62761 -3.3432 -9.62424
lowerback -3.77561 1.28036 5.65932
upperback -8.03221 1.83327 2.4325
thorax -6.17906 0.657815 -0.647616
lowerneck -12.3453 -6.53761 -5.73063
upperneck 33.0287 -10.4811 6.31371
head 13.962 -4.51956 1.85298
rclavicle 3.47873e-016 2.90226e-014
rhumerus -22.6524 25.3036 -98.0899
rradius 103.475
rwrist 0.188159
rhand -9.06742 -50.7305
rfingers 7.12502
rthumb 16.8815 -80.0168
lclavicle 3.47873e-016 2.90226e-014
lhumerus -41.9225 -13.0044 103.405
lradius 101.769
lwrist 21.0799
lhand -28.0801 -4.33714
lfingers 7.12502
lthumb -1.46327 25.6376
rfemur -4.15143 20.4808 27.3665
rtibia 9.03566
rfoot -13.5436 -20.4721
rtoes 2.01075
lfemur 11.0741 -43.997 -15.6486
ltibia -4.78439
lfoot -28.1561 53.6948
ltoes 17.319
392
root 0.585125 17.4425 9.30899 6.62391 -3.45389 -9.63284
lowerback -3.6383 1.31529 5.63232
upperback -8.03196 1.89336 2.47903
thorax -6.25637 0.689105 -0.587842
lowerneck -12.2797 -6.71702 -5.75865
upperneck 32.9683 -10.6708 6.11302
head 13.9233 -4.63516 1.74662
rclavicle 1.58531e-014 -3.73715e-014
rhumerus -21.4541 25.3497 -96.8011
rradius 103.055
rwrist 1.76046
rhand -10.0555 -50.0475
rfingers 7.12502
rthumb 15.9302 -79.4123
lclavicle 1.58531e-014 -3.73715e-014
lhumerus -41.9161 -13.0697 103.47
lradius 101.75
lwrist 21.0976
lhand -28.1544 -4.40779
lfingers 7.12502
lthumb -1.535 25.5664
rfemur -4.16623 20.5331 27.3582
rtibia 9.03225
rfoot -13.5087 -20.4166
rtoes 1.72871
lfemur 11.1106 -43.9762 -15.677
ltibia -4.81231
lfoot -28.2468 53.7479
ltoes 17.3782
393
root 0.58987 17.442 9.30173 6.63897 -3.56466 -9.60393
lowerback -3.56126 1.38509 5.62273
upperback -8.0071 1.9915 2.47634
thorax -6.26866 0.738433 -0.5885
lowerneck -12.1789 -6.91641 -5.88123
upperneck 32.8574 -10.9261 6.09575
head 13.8802 -4.76875 1.71964
rclavicle -8.44835e-016 1.94809e-014
rhumerus -20.0102 25.0813 -95.2955
rradius 102.365
rwrist 4.12358
rhand -11.172 -49.3548
rfingers 7.12502
rthumb 14.8548 -78.8022
lclavicle -8.44835e-016 1.94809e-014
lhumerus -41.8575 -13.2538 103.534
lradius 101.734
lwrist 21.1179
lhand -28.1779 -4.40635
lfingers 7.12502
lthumb -1.55776 25.5677
rfemur -4.20925 20.5723 27.2931
rtibia 9.0245
rfoot -13.4309 -20.3945
rtoes 1.44981
lfemur 11.0585 -43.9051 -15.7009
ltibia -4.78864
lfoot -28.0786 53.7921
ltoes 17.1417
394
root 0.595352 17.4426 9.29394 6.67302 -3.64682 -9.54756
lowerback -3.4916 1.46261 5.61215
upperback -8.00453 2.09981 2.45552
thorax -6.29967 0.79155 -0.607751
lowerneck -12.0839 -7.11806 -6.08136
upperneck 32.7958 -11.2014 6.16984
head 13.8754 -4.90747 1.73867
rclavicle 3.08116e-015 3.06128e-014
rhumerus -18.4061 24.4808 -93.6632
rradius 101.382
rwrist 7.14562
rhand -12.1548 -48.5277
rfingers 7.12502
rthumb 13.9079 -78.0426
lclavicle 3.08116e-015 3.06128e-014
lhumerus -41.7988 -13.4704 103.611
lradius 101.735
lwrist 21.1453
lhand -28.0763 -4.44478
lfingers 7.12502
lthumb -1.45962 25.53
rfemur -4.26362 20.5559 27.1756
rtibia 8.96985
rfoot -13.3245 -20.3437
rtoes 1.25277
lfemur 10.9338 -43.8018 -15.7064
ltibia -4.7538
lfoot -27.8296 53.8001
ltoes 16.9216
395
root 0.600081 17.4438 9.28408 6.70525 -3.69771 -9.53382
lowerback -3.38969 1.54181 5.64435
upperback -8.0158 2.21433 2.43856
thorax -6.36304 0.844349 -0.647841
lowerneck -11.9464 -7.35008 -6.25997
upperneck 32.6654 -11.517 6.22582
head 13.8321 -5.06613 1.74119
rclavicle 1.60519e-014 4.13472e-014
rhumerus -16.7536 23.5938 -91.9806
rradius 100.288
rwrist 9.66751
rhand -12.6216 -47.8303
rfingers 7.12502
rthumb 13.4579 -77.3755
lclavicle 1.60519e-014 4.13472e-014
lhumerus -41.7455 -13.7192 103.713
lradius 101.728
lwrist 21.1791
lhand -28.0468 -4.61089
lfingers 7.12502
lthumb -1.43114 25.3641
rfemur -4.32574 20.5142 27.1068
rtibia 8.91436
rfoot -13.2172 -20.2644
rtoes 1.07527
lfemur 10.8237 -43.769 -15.6682
ltibia -4.72741
lfoot -27.749 53.8269
ltoes 16.8782
396
root 0.604546 17.4451 9.27412 6.73385 -3.73546 -9.54078
lowerback -3.28144 1.63504 5.72938
upperback -8.02125 2.34751 2.40509
thorax -6.42059 0.902787 -0.735223
lowerneck -11.7719 -7.61025 -6.38207
upperneck 32.4464 -11.8628 6.22803
head 13.7366 -5.24103 1.70918
rclavicle -1.49585e-014 3.33958e-014
rhumerus -15.1172 22.5055 -90.3155
rradius 99.1736
rwrist 10.5031
rhand -12.9934 -47.2749
rfingers 7.12502
rthumb 13.0995 -76.8435
lclavicle -1.49585e-014 3.33958e-014
lhumerus -41.7149 -14.0165 103.844
lradius 101.711
lwrist 21.1649
lhand -28.1706 -4.67952
lfingers 7.12502
lthumb -1.55066 25.2946
rfemur -4.36659 20.5797 27.0717
rtibia 8.84015
rfoot -13.1834 -20.2679
rtoes 1.28826
lfemur 10.7689 -43.83 -15.6392
ltibia -4.73374
lfoot -28.0008 53.8509
ltoes 17.2482
397
root 0.608927 17.4471 9.26525 6.74927 -3.82409 -9.52046
lowerback -3.18128 1.7414 5.81213
upperback -7.99847 2.49504 2.35189
thorax -6.44072 0.968979 -0.842099
lowerneck -11.6409 -7.84378 -6.54433
upperneck 32.2704 -12.1875 6.30769
head 13.6784 -5.39944 1.71662
rclavicle -5.91384e-015 1.66979e-014
rhumerus -13.4063 21.3231 -88.7347
rradius 97.9588
rwrist 10.0259
rhand -13.8131 -47.0358
rfingers 7.12502
rthumb 12.3093 -76.6535
lclavicle -5.91384e-015 1.66979e-014
lhumerus -41.683 -14.3084 103.951
lradius 101.728
lwrist 21.1393
lhand -28.2746 -4.66361
lfingers 7.12502
lthumb -1.65108 25.3098
rfemur -4.35586 20.7411 27.0163
rtibia 8.71406
rfoot -13.1217 -20.3211
rtoes 1.51822
lfemur 10.7598 -43.8138 -15.6551
ltibia -4.79397
lfoot -28.1038 53.8916
ltoes 17.5162
398
root 0.612549 17.4492 9.25397 6.77843 -3.88705 -9.49043
lowerback -3.08759 1.81534 5.84963
upperback -7.96326 2.59853 2.31563
thorax -6.44766 1.01715 -0.905353
lowerneck -11.5003 -8.02083 -6.71907
upperneck 32.0556 -12.4474 6.466
head 13.6044 -5.52231 1.76839
rclavicle 2.28602e-015 1.23246e-014
rhumerus -11.7109 20.0146 -87.2542
rradius 96.5926
rwrist 9.87305
rhand -14.8518 -46.9032
rfingers 7.12502
rthumb 11.3077 -76.5784
lclavicle 2.28602e-015 1.23246e-014
lhumerus -41.5938 -14.5169 104.012
lradius 101.768
lwrist 21.1378
lhand -28.1779 -4.72874
lfingers 7.12502
lthumb -1.55768 25.2453
rfemur -4.37588 20.8631 26.9465
rtibia 8.59675
rfoot -13.0114 -20.3821
rtoes 1.50497
lfemur 10.6409 -43.71 -15.5987
ltibia -4.81711
lfoot -27.7929 53.9238
ltoes 17.2564
399
root 0.616745 17.4513 9.24029 6.86339 -3.8469 -9.49477
lowerback -2.98223 1.85314 5.88601
upperback -7.96275 2.65973 2.3336
thorax -6.504 1.04461 -0.911385
lowerneck -11.35 -8.18207 -6.9148
upperneck 31.7804 -12.6628 6.59951
head 13.4989 -5.63291 1.82162
rclavicle -2.34069e-014 3.53837e-014
rhumerus -10.1946 18.5461 -85.8237
rradius 95.0276
rwrist 11.0028
rhand -15.6511 -46.3848
rfingers 7.12502
rthumb 10.5367 -76.1007
lclavicle -2.34069e-014 3.53837e-014
lhumerus -41.5092 -14.6679 104.129
lradius 101.831
lwrist 21.1008
lhand -28.0084 -4.67656
lfingers 7.12502
lthumb -1.394 25.2986
rfemur -4.49739 20.8891 26.8862
rtibia 8.53237
rfoot -12.9729 -20.4382
rtoes 1.60692
lfemur 10.3294 -43.5781 -15.3564
ltibia -4.79871
lfoot -27.2867 53.852
ltoes 16.7764
400
root 0.620606 17.4533 9.22857 6.94128 -3.80347 -9.50101
lowerback -2.86184 1.91277 5.94212
upperback -7.95722 2.75159 2.35168
thorax -6.56119 1.08615 -0.929501
lowerneck -10.9223 -8.20274 -7.23853
upperneck 31.3042 -12.7413 7.0689
head 13.2756 -5.66971 2.06145
rclavicle 1.16289e-014 -3.77691e-014
rhumerus -8.66434 16.9211 -84.465
rradius 93.1672
rwrist 12.8318
rhand -16.053 -45.7397
rfingers 7.12502
rthumb 10.149 -75.475
lclavicle 1.16289e-014 -3.77691e-014
lhumerus -41.4403 -14.8968 104.31
lradius 101.9
lwrist 21.0786
lhand -28.0329 -4.59945
lfingers 7.12502
lthumb -1.41773 25.3756
rfemur -4.6069 20.9387 26.8321
rtibia 8.47469
rfoot -12.943 -20.5025
rtoes 1.71369
lfemur 10.0656 -43.4677 -15.1379
ltibia -4.80898
lfoot -26.9488 53.7569
ltoes 16.5467
401
root 0.622916 17.4564 9.21861 6.97013 -3.77812 -9.46245
lowerback -2.73038 1.9778 5.94301
upperback -7.93081 2.84877 2.34792
thorax -6.60227 1.13362 -0.940517
lowerneck -10.148 -8.04834 -7.6089
upperneck 30.6048 -12.6478 7.86011
head 12.9007 -5.61402 2.47345
rclavicle 1.02374e-014 1.72943e-014
rhumerus -7.05803 15.2492 -83.2186
rradius 91.0818
rwrist 14.1569
rhand -16.2472 -45.2202
rfingers 7.12502
rthumb 9.96168 -74.9645
lclavicle 1.02374e-014 1.72943e-014
lhumerus -41.367 -15.1478 104.483
lradius 101.953
lwrist 21.0874
lhand -28.1167 -4.76214
lfingers 7.12502
lthumb -1.49859 25.2123
rfemur -4.64614 21.0092 26.753
rtibia 8.39666
rfoot -12.8596 -20.5752
rtoes 1.67817
lfemur 9.92316 -43.4405 -15.0788
ltibia -4.80333
lfoot -26.8539 53.7089
ltoes 16.5894
